<svg width="1301" height="1542" viewBox="0 0 1301 1542" fill="none" xmlns="http://www.w3.org/2000/svg">
<g opacity="0.2" filter="url(#filter0_f_32_177)">
<path d="M383.205 745C286.405 623.8 503.205 397.833 623.705 300C647.205 303.667 707.205 312.8 759.205 320C824.205 329 914.705 446.5 967.205 506C1019.71 565.5 996.205 725 985.205 773.5C974.205 822 851.705 981.5 721.205 960C590.705 938.5 504.205 896.5 383.205 745Z" fill="#3797EF"/>
</g>
<g opacity="0.2" filter="url(#filter1_f_32_177)">
<path d="M324.205 1025C227.405 903.8 444.205 677.833 564.705 580C588.205 583.667 648.205 592.8 700.205 600C765.205 609 855.705 726.5 908.205 786C960.705 845.5 937.205 1005 926.205 1053.5C915.205 1102 792.705 1261.5 662.205 1240C531.705 1218.5 445.205 1176.5 324.205 1025Z" fill="#3036D3"/>
</g>
<defs>
<filter id="filter0_f_32_177" x="59" y="0" width="1241.06" height="1261.98" filterUnits="userSpaceOnUse" color-interpolation-filters="sRGB">
<feFlood flood-opacity="0" result="BackgroundImageFix"/>
<feBlend mode="normal" in="SourceGraphic" in2="BackgroundImageFix" result="shape"/>
<feGaussianBlur stdDeviation="150" result="effect1_foregroundBlur_32_177"/>
</filter>
<filter id="filter1_f_32_177" x="0" y="280" width="1241.06" height="1261.98" filterUnits="userSpaceOnUse" color-interpolation-filters="sRGB">
<feFlood flood-opacity="0" result="BackgroundImageFix"/>
<feBlend mode="normal" in="SourceGraphic" in2="BackgroundImageFix" result="shape"/>
<feGaussianBlur stdDeviation="150" result="effect1_foregroundBlur_32_177"/>
</filter>
</defs>
</svg>
