<?xml version="1.0" encoding="utf-8"?>
<!-- Generator: Adobe Illustrator 25.4.1, SVG Export Plug-In . SVG Version: 6.00 Build 0)  -->
<svg version="1.1" id="Layer_1" xmlns="http://www.w3.org/2000/svg" xmlns:xlink="http://www.w3.org/1999/xlink" x="0px" y="0px"
	 viewBox="0 0 500 500" style="enable-background:new 0 0 500 500;" xml:space="preserve">
<style type="text/css">
	.st0{display:none;}
	.st1{fill:url(#SVGID_1_);}
</style>
<g id="BACKGROUND" class="st0">
</g>
<g id="OBJECTS">
	<g>
		
			<linearGradient id="SVGID_1_" gradientUnits="userSpaceOnUse" x1="83.2" y1="252.1856" x2="445.08" y2="252.1856" gradientTransform="matrix(1 0 0 -1 0 501.2756)">
			<stop  offset="3.623188e-04" style="stop-color:#1746A2"/>
			<stop  offset="1" style="stop-color:#ACB3CA"/>
		</linearGradient>
		<path class="st1" d="M189.1,458h-14.2V40.1h14.2V458z M158.5,40.1h-14.2V458h14.2V40.1z M127.9,40.1h-14.2V458h14.2V40.1z
			 M97.4,40.1H83.2V458h14.2L97.4,40.1L97.4,40.1z M413.3,249.2c0-108.1-74.4-178-189.6-178h-18.2v14.2h18.2
			c106.6,0,175.4,64.3,175.4,163.8c0,99.5-68.9,163.8-175.4,163.8h-18.2v14.2h18.2C338.9,427.2,413.3,357.3,413.3,249.2z
			 M381.5,249.2c0-89.7-61.7-147.6-157.2-147.6h-18.8v14.2h18.8c86.9,0,143,52.4,143,133.4s-56.1,133.4-143,133.4h-18.8v14.2h18.8
			C319.8,396.8,381.5,338.8,381.5,249.2z M223.8,40.1h-18.3v14.2h18.3c125.8,0,207.1,76.5,207.1,194.8s-81.3,194.8-207.1,194.8
			h-18.3V458h18.3c134.4,0,221.2-82,221.2-208.9C445.1,122.2,358.2,40.1,223.8,40.1z M349.3,249.1c0-67.7-46.5-111.5-118.6-111.5
			h-25.1v14.2h25.1c63.4,0,104.4,38.2,104.4,97.3s-41,97.3-104.4,97.3h-25.1v14.2h25.1C302.7,360.6,349.3,316.8,349.3,249.1z"/>
	</g>
</g>
</svg>
