<?xml version="1.0" encoding="utf-8"?>
<!-- Generator: Adobe Illustrator 25.4.1, SVG Export Plug-In . SVG Version: 6.00 Build 0)  -->
<svg version="1.1" xmlns="http://www.w3.org/2000/svg" xmlns:xlink="http://www.w3.org/1999/xlink" x="0px" y="0px"
	 viewBox="0 0 500 500" style="enable-background:new 0 0 500 500;" xml:space="preserve">
<style type="text/css">
	.st0{display:none;}
	.st1{fill:url(#SVGID_1_);}
</style>
<g id="BACKGROUND" class="st0">
</g>
<g id="OBJECTS">
	<g>
		<linearGradient id="SVGID_1_" gradientUnits="userSpaceOnUse" x1="83.2031" y1="249.0902" x2="445.073" y2="249.0902">
			<stop  offset="0" style="stop-color:#090E34"/>
			<stop  offset="1" style="stop-color:#1746A2"/>
		</linearGradient>
		<path class="st1" d="M189.05,458.04h-14.17V40.14h14.17V458.04z M158.46,40.14h-14.17v417.9h14.17V40.14z M127.86,40.14h-14.17
			v417.9h14.17V40.14z M97.38,40.14H83.2v417.9h14.17V40.14z M413.3,249.16c0-108.13-74.42-178-189.59-178h-18.17v14.17h18.17
			c106.56,0,175.42,64.31,175.42,163.82c0,99.52-68.85,163.83-175.42,163.83h-18.17v14.17h18.17
			C338.88,427.16,413.3,357.3,413.3,249.16z M381.45,249.16c0-89.68-61.69-147.62-157.16-147.62h-18.75v14.17h18.75
			c86.86,0,142.99,52.38,142.99,133.45c0,81.07-56.13,133.45-142.99,133.45h-18.75v14.17h18.75
			C319.77,396.79,381.45,338.84,381.45,249.16z M223.84,40.14h-18.29v14.17h18.29c125.79,0,207.06,76.46,207.06,194.78
			s-81.28,194.78-207.06,194.78h-18.29v14.17h18.29c134.4,0,221.24-82.02,221.24-208.95C445.07,122.16,358.23,40.14,223.84,40.14z
			 M349.27,249.09c0-67.73-46.54-111.5-118.58-111.5h-25.15v14.17h25.15c63.42,0,104.4,38.2,104.4,97.32
			c0,59.12-40.98,97.32-104.4,97.32h-25.15v14.17h25.15C302.72,360.58,349.27,316.82,349.27,249.09z"/>
	</g>
</g>
</svg>
